<svg xmlns="http://www.w3.org/2000/svg" width="108" height="48" viewBox="0 0 108 48" fill="none"><g clip-path="url(#clip0_215_233)"><path d="M67 10.0181V9.08057C66.9997 8.79059 66.8843 8.51258 66.6793 8.30753C66.4742 8.10249 66.1962 7.98715 65.9062 7.98682H36.0938C35.8038 7.98715 35.5258 8.10249 35.3207 8.30753C35.1157 8.51258 35.0003 8.79059 35 9.08057V10.0181C35.0004 10.2918 35.1032 10.5554 35.2883 10.7571C35.4734 10.9587 35.7273 11.0837 36 11.1074V16.4293C35.7274 16.4529 35.4735 16.5778 35.2884 16.7793C35.1033 16.9809 35.0004 17.2444 35 17.5181V18.4556C35.0004 18.7293 35.1032 18.9929 35.2883 19.1946C35.4734 19.3962 35.7273 19.5212 36 19.5449V24.8668C35.7274 24.8904 35.4735 25.0153 35.2884 25.2168C35.1033 25.4184 35.0004 25.6819 35 25.9556V26.8931C35.0004 27.1668 35.1032 27.4304 35.2883 27.6321C35.4734 27.8337 35.7273 27.9587 36 27.9824V39.0624H35.4688C35.3444 39.0624 35.2252 39.1118 35.1373 39.1997C35.0494 39.2876 35 39.4069 35 39.5312C35 39.6555 35.0494 39.7747 35.1373 39.8626C35.2252 39.9506 35.3444 39.9999 35.4688 39.9999H66.5312C66.6556 39.9999 66.7748 39.9506 66.8627 39.8626C66.9506 39.7747 67 39.6555 67 39.5312C67 39.4069 66.9506 39.2876 66.8627 39.1997C66.7748 39.1118 66.6556 39.0624 66.5312 39.0624H66V27.9824C66.2727 27.9587 66.5266 27.8337 66.7117 27.6321C66.8968 27.4304 66.9996 27.1668 67 26.8931V25.9556C66.9996 25.6819 66.8967 25.4184 66.7116 25.2168C66.5265 25.0153 66.2726 24.8904 66 24.8668V19.5449C66.2727 19.5212 66.5266 19.3962 66.7117 19.1946C66.8968 18.9929 66.9996 18.7293 67 18.4556V17.5181C66.9996 17.2444 66.8967 16.9809 66.7116 16.7793C66.5265 16.5778 66.2726 16.4529 66 16.4293V11.1074C66.2727 11.0837 66.5266 10.9587 66.7117 10.7571C66.8968 10.5554 66.9996 10.2918 67 10.0181ZM50.5312 39.0624H46.0312V32.6774H50.5312V39.0624ZM55.9688 39.0624H51.4688V32.6774H55.9688V39.0624ZM56.875 31.7399H45.125C45.1168 31.7398 45.1089 31.7364 45.1031 31.7306C45.0973 31.7248 45.0939 31.7169 45.0938 31.7087V30.8337C45.0938 30.8254 45.097 30.8175 45.1029 30.8116C45.1088 30.8057 45.1167 30.8024 45.125 30.8024H56.875C56.8833 30.8024 56.8912 30.8057 56.8971 30.8116C56.903 30.8175 56.9062 30.8254 56.9062 30.8337V31.7087C56.9061 31.7169 56.9027 31.7248 56.8969 31.7306C56.8911 31.7364 56.8832 31.7398 56.875 31.7399ZM65.0625 39.0624H56.9069V32.6756C57.158 32.6673 57.3961 32.5619 57.5709 32.3815C57.7458 32.2011 57.8439 31.9599 57.8444 31.7087V30.8337C57.844 30.5769 57.7419 30.3307 57.5603 30.149C57.3787 29.9674 57.1325 29.8653 56.8756 29.8649H45.125C44.8682 29.8653 44.622 29.9674 44.4404 30.149C44.2588 30.3307 44.1566 30.5769 44.1562 30.8337V31.7087C44.1568 31.9599 44.2548 32.2011 44.4297 32.3815C44.6046 32.5619 44.8427 32.6673 45.0938 32.6756V39.0624H36.9375V27.9868H65.0625V39.0624ZM66.0625 25.9556V26.8931C66.0625 26.9345 66.046 26.9742 66.0167 27.0036C65.9874 27.0329 65.9477 27.0493 65.9062 27.0493H36.0938C36.0523 27.0493 36.0126 27.0329 35.9833 27.0036C35.954 26.9742 35.9375 26.9345 35.9375 26.8931V25.9556C35.9375 25.9141 35.954 25.8744 35.9833 25.8451C36.0126 25.8158 36.0523 25.7993 36.0938 25.7993H65.9062C65.9477 25.7993 65.9874 25.8158 66.0167 25.8451C66.046 25.8744 66.0625 25.9141 66.0625 25.9556ZM36.9375 24.8618V19.5493H41.8125V24.8618H36.9375ZM42.75 24.8618V19.5493H47.625V24.8618H42.75ZM48.5625 24.8618V19.5493H53.4375V24.8618H48.5625ZM54.375 24.8618V19.5493H59.25V24.8618H54.375ZM60.1875 24.8618V19.5493H65.0625V24.8618H60.1875ZM66.0625 17.5181V18.4556C66.0625 18.497 66.046 18.5367 66.0167 18.5661C65.9874 18.5954 65.9477 18.6118 65.9062 18.6118H36.0938C36.0523 18.6118 36.0126 18.5954 35.9833 18.5661C35.954 18.5367 35.9375 18.497 35.9375 18.4556V17.5181C35.9375 17.4766 35.954 17.4369 35.9833 17.4076C36.0126 17.3783 36.0523 17.3618 36.0938 17.3618H65.9062C65.9477 17.3618 65.9874 17.3783 66.0167 17.4076C66.046 17.4369 66.0625 17.4766 66.0625 17.5181ZM36.9375 16.4243V11.1118H41.8125V16.4243H36.9375ZM42.75 16.4243V11.1118H47.625V16.4243H42.75ZM48.5625 16.4243V11.1118H53.4375V16.4243H48.5625ZM54.375 16.4243V11.1118H59.25V16.4243H54.375ZM60.1875 16.4243V11.1118H65.0625V16.4243H60.1875ZM65.9062 10.1743H36.0938C36.0523 10.1743 36.0126 10.1579 35.9833 10.1286C35.954 10.0992 35.9375 10.0595 35.9375 10.0181V9.08057C35.9375 9.03913 35.954 8.99938 35.9833 8.97008C36.0126 8.94078 36.0523 8.92432 36.0938 8.92432H65.9062C65.9477 8.92432 65.9874 8.94078 66.0167 8.97008C66.046 8.99938 66.0625 9.03913 66.0625 9.08057V10.0181C66.0625 10.0595 66.046 10.0992 66.0167 10.1286C65.9874 10.1579 65.9477 10.1743 65.9062 10.1743ZM38.5031 37.7056H43.5C43.6243 37.7056 43.7435 37.6562 43.8315 37.5683C43.9194 37.4804 43.9688 37.3611 43.9688 37.2368V34.1599C43.9688 34.0356 43.9194 33.9164 43.8315 33.8285C43.7435 33.7406 43.6243 33.6912 43.5 33.6912H38.5031C38.3788 33.6912 38.2596 33.7406 38.1717 33.8285C38.0838 33.9164 38.0344 34.0356 38.0344 34.1599V37.2368C38.0344 37.3611 38.0838 37.4804 38.1717 37.5683C38.2596 37.6562 38.3788 37.7056 38.5031 37.7056ZM38.9719 34.6287H43.0281V36.7681H38.9719V34.6287ZM58.5031 37.7056H63.5C63.6243 37.7056 63.7435 37.6562 63.8315 37.5683C63.9194 37.4804 63.9688 37.3611 63.9688 37.2368V34.1599C63.9688 34.0356 63.9194 33.9164 63.8315 33.8285C63.7435 33.7406 63.6243 33.6912 63.5 33.6912H58.5063C58.3819 33.6912 58.2627 33.7406 58.1748 33.8285C58.0869 33.9164 58.0375 34.0356 58.0375 34.1599V37.2368C58.0375 37.3606 58.0865 37.4794 58.1737 37.5672C58.2609 37.655 58.3793 37.7047 58.5031 37.7056ZM58.9719 34.6287H63.0281V36.7681H58.9719V34.6287Z" fill="#AF8750"></path></g><defs><clipPath id="clip0_215_233"><rect width="32" height="32" fill="white" transform="translate(35 8)"></rect></clipPath></defs></svg>