<svg xmlns="http://www.w3.org/2000/svg" width="108" height="48" viewBox="0 0 108 48" fill="none"><path d="M44.005 27.25C44.0436 27.368 44.1275 27.466 44.2381 27.5225C44.3488 27.5789 44.4773 27.5893 44.5956 27.5512L49.4025 25.9887C49.5208 25.9503 49.6189 25.8664 49.6753 25.7556C49.7318 25.6447 49.7419 25.516 49.7034 25.3978C49.665 25.2795 49.5811 25.1814 49.4703 25.1249C49.3595 25.0685 49.2308 25.0584 49.1125 25.0968L44.3062 26.6593C44.2477 26.6783 44.1934 26.7087 44.1466 26.7486C44.0997 26.7886 44.0612 26.8374 44.0333 26.8922C44.0053 26.9471 43.9884 27.0069 43.9835 27.0683C43.9787 27.1297 43.986 27.1914 44.005 27.25ZM56.9306 20.4375C57.0046 20.4376 57.0776 20.4202 57.1436 20.3867C57.2096 20.3531 57.2666 20.3043 57.31 20.2443L60.2806 16.1556C60.3192 16.106 60.3475 16.0491 60.3636 15.9884C60.3798 15.9276 60.3836 15.8642 60.3748 15.802C60.366 15.7397 60.3447 15.6799 60.3123 15.626C60.2799 15.5722 60.237 15.5254 60.1861 15.4884C60.1353 15.4515 60.0775 15.4252 60.0163 15.411C59.955 15.3968 59.8915 15.3952 59.8296 15.406C59.7677 15.4169 59.7086 15.4401 59.6558 15.4743C59.6031 15.5085 59.5577 15.5529 59.5225 15.605L56.5519 19.6875C56.4789 19.7881 56.4488 19.9136 56.4683 20.0364C56.4877 20.1592 56.5551 20.2693 56.6556 20.3425C56.7347 20.4028 56.8311 20.4361 56.9306 20.4375ZM47.8231 32.5C47.8728 32.5363 47.9292 32.5625 47.9891 32.577C48.0489 32.5914 48.1111 32.5939 48.1719 32.5843C48.2327 32.5746 48.291 32.5531 48.3435 32.5208C48.3959 32.4885 48.4415 32.4462 48.4775 32.3962L51.4481 28.3125C51.4845 28.2625 51.5106 28.2059 51.5251 28.1458C51.5396 28.0858 51.5421 28.0235 51.5325 27.9624C51.5229 27.9014 51.5014 27.8429 51.4691 27.7902C51.4369 27.7375 51.3946 27.6916 51.3447 27.6553C51.2947 27.6189 51.2381 27.5927 51.1781 27.5783C51.118 27.5638 51.0557 27.5613 50.9947 27.5709C50.9336 27.5805 50.8751 27.602 50.8224 27.6343C50.7697 27.6665 50.7238 27.7088 50.6875 27.7587L47.7169 31.8475C47.6444 31.9481 47.6149 32.0734 47.6349 32.1957C47.6548 32.3181 47.7225 32.4275 47.8231 32.5ZM54 19.4818C54.1243 19.4818 54.2435 19.4325 54.3314 19.3445C54.4194 19.2566 54.4687 19.1374 54.4687 19.0131V13.9593C54.4687 13.835 54.4194 13.7158 54.3314 13.6279C54.2435 13.54 54.1243 13.4906 54 13.4906C53.8757 13.4906 53.7564 13.54 53.6685 13.6279C53.5806 13.7158 53.5312 13.835 53.5312 13.9593V19.0131C53.5312 19.1374 53.5806 19.2566 53.6685 19.3445C53.7564 19.4325 53.8757 19.4818 54 19.4818ZM63.9575 19.0556C63.9157 19.1831 63.9105 19.3198 63.9427 19.4501C63.9749 19.5804 64.043 19.699 64.1394 19.7925L64.8419 20.48L64.6762 21.4462C64.6533 21.5784 64.6678 21.7145 64.7182 21.8388C64.7686 21.9632 64.8529 22.071 64.9614 22.1499C65.0699 22.2288 65.1984 22.2758 65.3323 22.2854C65.4662 22.295 65.6 22.2669 65.7187 22.2043L66.5875 21.7475L67.4556 22.2043C67.5746 22.2674 67.7088 22.2957 67.8431 22.2862C67.9774 22.2767 68.1063 22.2296 68.2151 22.1504C68.3239 22.0712 68.4083 21.963 68.4587 21.8382C68.5091 21.7134 68.5234 21.5769 68.5 21.4443L68.3344 20.4775L69.0369 19.79C69.1328 19.6964 69.2006 19.5778 69.2327 19.4476C69.2648 19.3175 69.2599 19.181 69.2185 19.0535C69.1771 18.926 69.1008 18.8126 68.9984 18.7262C68.8959 18.6398 68.7714 18.5837 68.6387 18.5643L67.6681 18.4231L67.2306 17.5431C67.1717 17.4225 67.08 17.321 66.966 17.2502C66.852 17.1793 66.7204 17.142 66.5862 17.1425C66.452 17.1421 66.3203 17.1794 66.2063 17.2503C66.0922 17.3211 66.0004 17.4226 65.9412 17.5431L65.5075 18.4231L64.5369 18.5643C64.4039 18.5834 64.279 18.6397 64.1765 18.7266C64.074 18.8135 63.9981 18.9275 63.9575 19.0556ZM65.7575 19.3368C65.8727 19.32 65.9821 19.2754 66.0762 19.2069C66.1704 19.1384 66.2465 19.0481 66.2981 18.9437L66.5875 18.3581L66.8762 18.9431C66.9277 19.0477 67.0039 19.1382 67.0982 19.2068C67.1925 19.2754 67.3021 19.32 67.4175 19.3368L68.0631 19.4306L67.5956 19.8862C67.5122 19.9676 67.4499 20.068 67.414 20.1789C67.378 20.2897 67.3696 20.4076 67.3894 20.5225L67.5 21.1656L66.9225 20.8618C66.8193 20.8076 66.7044 20.7793 66.5878 20.7793C66.4712 20.7793 66.3563 20.8076 66.2531 20.8618L65.6756 21.1656L65.7862 20.5225C65.8059 20.4076 65.7974 20.2896 65.7613 20.1788C65.7253 20.068 65.6629 19.9675 65.5794 19.8862L65.1119 19.4306L65.7575 19.3368ZM51.0694 20.4375C51.1682 20.4377 51.2645 20.4064 51.3444 20.3481C51.3949 20.3118 51.4378 20.2659 51.4704 20.2129C51.5031 20.1599 51.5248 20.101 51.5345 20.0395C51.5442 19.978 51.5415 19.9152 51.5267 19.8548C51.5118 19.7944 51.4851 19.7375 51.4481 19.6875L48.4775 15.5993C48.4028 15.5033 48.2937 15.4402 48.1733 15.4231C48.0528 15.406 47.9305 15.4365 47.8321 15.5079C47.7337 15.5794 47.6669 15.6864 47.6459 15.8062C47.6248 15.926 47.6512 16.0492 47.7194 16.15L50.6875 20.2412C50.7308 20.3021 50.7881 20.3517 50.8545 20.3858C50.921 20.42 50.9947 20.4377 51.0694 20.4375ZM57.2656 24.4456C57.3577 24.4138 57.4375 24.3541 57.4941 24.2748C57.5506 24.1955 57.581 24.1005 57.581 24.0031C57.581 23.9057 57.5506 23.8107 57.4941 23.7314C57.4375 23.6521 57.3577 23.5924 57.2656 23.5606C56.6117 23.3351 56.0176 22.9637 55.5285 22.4746C55.0394 21.9854 54.668 21.3914 54.4425 20.7375C54.4107 20.6454 54.351 20.5655 54.2717 20.509C54.1924 20.4525 54.0974 20.4221 54 20.4221C53.9026 20.4221 53.8076 20.4525 53.7283 20.509C53.649 20.5655 53.5893 20.6454 53.5575 20.7375C53.332 21.3914 52.9606 21.9854 52.4715 22.4746C51.9823 22.9637 51.3883 23.3351 50.7344 23.5606C50.6423 23.5924 50.5624 23.6521 50.5059 23.7314C50.4494 23.8107 50.419 23.9057 50.419 24.0031C50.419 24.1005 50.4494 24.1955 50.5059 24.2748C50.5624 24.3541 50.6423 24.4138 50.7344 24.4456C51.3883 24.6711 51.9823 25.0425 52.4715 25.5316C52.9606 26.0207 53.332 26.6148 53.5575 27.2687C53.5893 27.3608 53.649 27.4406 53.7283 27.4972C53.8076 27.5537 53.9026 27.5841 54 27.5841C54.0974 27.5841 54.1924 27.5537 54.2717 27.4972C54.351 27.4406 54.4107 27.3608 54.4425 27.2687C54.6676 26.6142 55.0388 26.0195 55.528 25.5298C56.0171 25.0402 56.6113 24.6683 57.2656 24.4425V24.4456ZM54 25.9912C53.5214 25.1651 52.8349 24.4786 52.0087 24C52.8349 23.5213 53.5214 22.8348 54 22.0087C54.4786 22.8348 55.1651 23.5213 55.9912 24C55.1651 24.4786 54.4786 25.1651 54 25.9912ZM44.005 20.75C43.986 20.8085 43.9787 20.8703 43.9835 20.9316C43.9884 20.993 44.0053 21.0528 44.0333 21.1077C44.0612 21.1625 44.0997 21.2113 44.1466 21.2513C44.1934 21.2913 44.2477 21.3216 44.3062 21.3406L49.1125 22.9031C49.2308 22.9415 49.3595 22.9314 49.4703 22.875C49.5811 22.8186 49.665 22.7204 49.7034 22.6021C49.7419 22.4839 49.7318 22.3552 49.6753 22.2444C49.6189 22.1335 49.5208 22.0497 49.4025 22.0112L44.5956 20.4487C44.4773 20.4105 44.3487 20.4207 44.238 20.4772C44.1273 20.5337 44.0435 20.6318 44.005 20.75ZM54 28.5181C53.8757 28.5181 53.7564 28.5675 53.6685 28.6554C53.5806 28.7433 53.5312 28.8625 53.5312 28.9868V34.0406C53.5312 34.1649 53.5806 34.2841 53.6685 34.372C53.7564 34.46 53.8757 34.5093 54 34.5093C54.1243 34.5093 54.2435 34.46 54.3314 34.372C54.4194 34.2841 54.4687 34.1649 54.4687 34.0406V28.9868C54.4687 28.8625 54.4194 28.7433 54.3314 28.6554C54.2435 28.5675 54.1243 28.5181 54 28.5181ZM59.73 14.6362L60.7006 14.7775L61.1381 15.6568C61.1975 15.777 61.2893 15.8782 61.4032 15.9489C61.5171 16.0197 61.6484 16.0572 61.7825 16.0572C61.9165 16.0572 62.0479 16.0197 62.1618 15.9489C62.2757 15.8782 62.3675 15.777 62.4269 15.6568L62.8644 14.7775L63.835 14.6362C63.9678 14.6169 64.0925 14.5609 64.195 14.4744C64.2976 14.3879 64.3739 14.2745 64.4153 14.1469C64.4567 14.0193 64.4616 13.8826 64.4294 13.7524C64.3972 13.6222 64.3292 13.5036 64.2331 13.41L63.5306 12.7225L63.6969 11.7556C63.72 11.6227 63.7052 11.486 63.6542 11.3611C63.6033 11.2361 63.5182 11.1281 63.4087 11.0493C63.2993 10.9704 63.1698 10.924 63.0352 10.9153C62.9006 10.9066 62.7662 10.9359 62.6475 11L61.7794 11.4562L60.9112 11C60.7925 10.9375 60.6587 10.9095 60.5249 10.9191C60.3912 10.9288 60.2627 10.9756 60.1542 11.0544C60.0457 11.1333 59.9614 11.2409 59.9108 11.3651C59.8602 11.4894 59.8455 11.6253 59.8681 11.7575L60.0337 12.7243L59.3319 13.4118C59.2357 13.5054 59.1677 13.624 59.1355 13.7543C59.1033 13.8845 59.1082 14.0212 59.1497 14.1487C59.1911 14.2763 59.2674 14.3898 59.37 14.4763C59.4725 14.5628 59.5972 14.6188 59.73 14.6381V14.6362ZM60.7706 13.3162C60.8541 13.235 60.9166 13.1347 60.9526 13.024C60.9886 12.9132 60.9972 12.7954 60.9775 12.6806L60.8675 12.0368L61.445 12.3406C61.5481 12.3948 61.6629 12.4231 61.7794 12.4231C61.8959 12.4231 62.0106 12.3948 62.1137 12.3406L62.6919 12.0368L62.5812 12.6806C62.5615 12.7954 62.5701 12.9132 62.6061 13.024C62.6422 13.1347 62.7046 13.235 62.7881 13.3162L63.255 13.7718L62.6094 13.8662C62.494 13.8828 62.3844 13.9273 62.2901 13.9958C62.1958 14.0643 62.1196 14.1548 62.0681 14.2593L61.7794 14.8443L61.4906 14.2593C61.4391 14.1548 61.3629 14.0643 61.2686 13.9958C61.1743 13.9273 61.0647 13.8828 60.9494 13.8662L60.3031 13.7718L60.7706 13.3162ZM44.0425 28.9443C44.0843 28.8168 44.0894 28.6801 44.0573 28.5498C44.0251 28.4195 43.957 28.3009 43.8606 28.2075L43.1581 27.52L43.3237 26.5537C43.3459 26.4217 43.3308 26.2862 43.2801 26.1623C43.2294 26.0385 43.1451 25.9313 43.0367 25.8527C42.9284 25.7742 42.8002 25.7275 42.6668 25.7178C42.5333 25.7082 42.3998 25.736 42.2812 25.7981L41.4125 26.255L40.5444 25.7981C40.4256 25.7353 40.2917 25.707 40.1577 25.7165C40.0237 25.7259 39.895 25.7727 39.7863 25.8516C39.6775 25.9305 39.5931 26.0382 39.5425 26.1627C39.4919 26.2871 39.4772 26.4232 39.5 26.5556L39.6656 27.5225L38.9631 28.21C38.8672 28.3036 38.7993 28.4221 38.7672 28.5523C38.7352 28.6824 38.7401 28.819 38.7815 28.9464C38.8229 29.0739 38.8991 29.1873 39.0016 29.2737C39.104 29.3602 39.2286 29.4162 39.3612 29.4356L40.3319 29.5768L40.7662 30.4568C40.8252 30.5774 40.9169 30.6789 41.0308 30.7498C41.1448 30.8206 41.2764 30.8579 41.4106 30.8575C41.5449 30.8578 41.6765 30.8205 41.7906 30.7497C41.9046 30.6788 41.9965 30.5774 42.0556 30.4568L42.4894 29.5768L43.46 29.4356C43.5935 29.417 43.7191 29.361 43.8222 29.2741C43.9253 29.1872 44.0017 29.0728 44.0425 28.9443ZM42.2425 28.6631C42.1273 28.68 42.0179 28.7246 41.9237 28.793C41.8296 28.8615 41.7534 28.9518 41.7019 29.0562L41.4125 29.6418L41.125 29.0568C41.0735 28.9522 40.9973 28.8617 40.903 28.7931C40.8087 28.7245 40.6991 28.6799 40.5837 28.6631L39.9375 28.5693L40.405 28.1137C40.4884 28.0323 40.5507 27.9319 40.5866 27.821C40.6226 27.7102 40.631 27.5923 40.6112 27.4775L40.5 26.8343L41.0775 27.1381C41.1807 27.1923 41.2956 27.2206 41.4122 27.2206C41.5288 27.2206 41.6436 27.1923 41.7469 27.1381L42.3244 26.8343L42.2137 27.4775C42.1941 27.5923 42.2026 27.7103 42.2386 27.8211C42.2747 27.932 42.3371 28.0324 42.4206 28.1137L42.8881 28.5693L42.2425 28.6631ZM59.5225 32.3981C59.5577 32.4501 59.6031 32.4946 59.6558 32.5288C59.7086 32.5629 59.7677 32.5862 59.8296 32.597C59.8915 32.6079 59.955 32.6062 60.0163 32.592C60.0775 32.5779 60.1353 32.5516 60.1861 32.5146C60.237 32.4777 60.2799 32.4309 60.3123 32.377C60.3447 32.3231 60.366 32.2633 60.3748 32.2011C60.3836 32.1388 60.3798 32.0754 60.3636 32.0147C60.3475 31.9539 60.3192 31.8971 60.2806 31.8475L57.3125 27.7587C57.2761 27.7088 57.2303 27.6665 57.1776 27.6343C57.1249 27.602 57.0663 27.5805 57.0053 27.5709C56.9443 27.5613 56.882 27.5638 56.8219 27.5783C56.7619 27.5927 56.7052 27.6189 56.6553 27.6553C56.6054 27.6916 56.5631 27.7375 56.5308 27.7902C56.4986 27.8429 56.4771 27.9014 56.4675 27.9624C56.4579 28.0235 56.4604 28.0858 56.4749 28.1458C56.4893 28.2059 56.5155 28.2625 56.5519 28.3125L59.5225 32.3981ZM48.2725 33.3637L47.3019 33.2225L46.8675 32.3431C46.8081 32.2229 46.7163 32.1217 46.6024 32.051C46.4886 31.9802 46.3572 31.9427 46.2231 31.9427C46.0891 31.9427 45.9577 31.9802 45.8438 32.051C45.7299 32.1217 45.6381 32.2229 45.5787 32.3431L45.1412 33.2225L44.1706 33.3637C44.0379 33.383 43.9131 33.439 43.8106 33.5255C43.708 33.612 43.6317 33.7255 43.5903 33.8531C43.5489 33.9806 43.544 34.1173 43.5762 34.2475C43.6084 34.3778 43.6764 34.4964 43.7725 34.59L44.475 35.2743L44.3125 36.2412C44.2895 36.3732 44.3039 36.509 44.354 36.6332C44.4042 36.7575 44.4882 36.8652 44.5964 36.9441C44.7047 37.0231 44.8329 37.0702 44.9665 37.0801C45.1001 37.0899 45.2338 37.0622 45.3525 37L46.2206 36.5437L47.0887 37C47.2074 37.0624 47.3413 37.0904 47.475 37.0808C47.6088 37.0712 47.7372 37.0243 47.8458 36.9455C47.9543 36.8667 48.0386 36.7591 48.0892 36.6348C48.1397 36.5106 48.1545 36.3747 48.1319 36.2425L47.9662 35.2756L48.6681 34.5912C48.7642 34.4976 48.8322 34.379 48.8644 34.2488C48.8966 34.1185 48.8917 33.9819 48.8503 33.8543C48.8089 33.7267 48.7326 33.6133 48.63 33.5268C48.5275 33.4403 48.4028 33.3842 48.27 33.365L48.2725 33.3637ZM47.2319 34.6837C47.1484 34.7649 47.0859 34.8652 47.0499 34.976C47.0138 35.0867 47.0053 35.2046 47.025 35.3193L47.135 35.9631L46.5575 35.6593C46.4544 35.6051 46.3396 35.5768 46.2231 35.5768C46.1066 35.5768 45.9919 35.6051 45.8887 35.6593L45.3106 35.9631L45.4212 35.3193C45.4409 35.2046 45.4324 35.0867 45.3963 34.976C45.3603 34.8652 45.2978 34.7649 45.2144 34.6837L44.7475 34.2281L45.3931 34.1337C45.5085 34.1171 45.6181 34.0726 45.7124 34.0041C45.8067 33.9356 45.8829 33.8452 45.9344 33.7406L46.2231 33.1556L46.5119 33.7406C46.5634 33.8452 46.6396 33.9356 46.7339 34.0041C46.8282 34.0726 46.9378 34.1171 47.0531 34.1337L47.6994 34.2281L47.2319 34.6837ZM63.8312 33.3637L62.8606 33.2225L62.4231 32.3431C62.3642 32.2225 62.2725 32.121 62.1585 32.0502C62.0446 31.9793 61.9129 31.942 61.7787 31.9425C61.6445 31.942 61.5129 31.9793 61.399 32.0502C61.285 32.121 61.1933 32.2225 61.1344 32.3431L60.6969 33.2225L59.7262 33.3637C59.5935 33.383 59.4688 33.439 59.3662 33.5255C59.2636 33.612 59.1873 33.7255 59.1459 33.8531C59.1045 33.9806 59.0996 34.1173 59.1318 34.2475C59.164 34.3778 59.232 34.4964 59.3281 34.59L60.03 35.2743L59.8644 36.2412C59.8404 36.3741 59.8544 36.5111 59.9049 36.6364C59.9553 36.7617 60.0401 36.8702 60.1494 36.9495C60.2588 37.0288 60.3883 37.0756 60.5231 37.0845C60.6578 37.0934 60.7924 37.0641 60.9112 37L61.7794 36.5437L62.6475 37C62.7662 37.0624 62.9 37.0904 63.0338 37.0808C63.1676 37.0712 63.296 37.0243 63.4045 36.9455C63.5131 36.8667 63.5974 36.7591 63.6479 36.6348C63.6985 36.5106 63.7133 36.3747 63.6906 36.2425L63.5244 35.2756L64.2269 34.5912C64.323 34.4976 64.391 34.379 64.4232 34.2488C64.4554 34.1185 64.4505 33.9819 64.4091 33.8543C64.3676 33.7267 64.2913 33.6133 64.1888 33.5268C64.0862 33.4403 63.9615 33.3842 63.8287 33.365L63.8312 33.3637ZM62.7906 34.6837C62.7071 34.7649 62.6447 34.8652 62.6086 34.976C62.5726 35.0867 62.564 35.2046 62.5837 35.3193L62.6944 35.9631L62.1162 35.6593C62.0131 35.6051 61.8984 35.5768 61.7819 35.5768C61.6654 35.5768 61.5506 35.6051 61.4475 35.6593L60.87 35.9631L60.98 35.3193C60.9997 35.2046 60.9911 35.0867 60.9551 34.976C60.9191 34.8652 60.8566 34.7649 60.7731 34.6837L60.3056 34.2281L60.9519 34.1337C61.0672 34.1171 61.1768 34.0726 61.2711 34.0041C61.3654 33.9356 61.4416 33.8452 61.4931 33.7406L61.7819 33.1556L62.0706 33.7406C62.1221 33.8452 62.1983 33.9356 62.2926 34.0041C62.3869 34.0726 62.4965 34.1171 62.6119 34.1337L63.2575 34.2281L62.7906 34.6837ZM68.335 27.5225L68.5 26.5556C68.5224 26.4234 68.5075 26.2877 68.4568 26.1636C68.4062 26.0395 68.3219 25.932 68.2134 25.8532C68.105 25.7744 67.9767 25.7276 67.843 25.7178C67.7093 25.7081 67.5756 25.7359 67.4569 25.7981L66.5887 26.255L65.72 25.7981C65.6013 25.7358 65.4676 25.7079 65.3339 25.7176C65.2002 25.7274 65.0719 25.7743 64.9635 25.8531C64.855 25.9318 64.7708 26.0394 64.7203 26.1635C64.6697 26.2877 64.6549 26.4235 64.6775 26.5556L64.8431 27.5225L64.1406 28.21C64.0444 28.3035 63.9764 28.4221 63.9442 28.5524C63.912 28.6827 63.9169 28.8193 63.9584 28.9469C63.9999 29.0745 64.0764 29.1879 64.179 29.2743C64.2817 29.3607 64.4066 29.4165 64.5394 29.4356L65.51 29.5768L65.9437 30.4568C66.0031 30.5772 66.0949 30.6785 66.2088 30.7494C66.3228 30.8203 66.4543 30.8578 66.5884 30.8578C66.7226 30.8578 66.8541 30.8203 66.968 30.7494C67.082 30.6785 67.1738 30.5772 67.2331 30.4568L67.6706 29.5768L68.6412 29.4356C68.7739 29.4162 68.8984 29.3602 69.0009 29.2737C69.1033 29.1873 69.1796 29.0739 69.221 28.9464C69.2624 28.819 69.2673 28.6824 69.2352 28.5523C69.2031 28.4221 69.1353 28.3036 69.0394 28.21L68.335 27.5225ZM67.42 28.6631C67.304 28.6793 67.1937 28.7236 67.0988 28.7921C67.0038 28.8606 66.927 28.9513 66.875 29.0562L66.5862 29.6418L66.2975 29.0568C66.2459 28.9523 66.1696 28.8619 66.0754 28.7933C65.9811 28.7247 65.8716 28.68 65.7562 28.6631L65.11 28.5693L65.5775 28.1137C65.661 28.0324 65.7234 27.932 65.7595 27.8211C65.7955 27.7103 65.8041 27.5923 65.7844 27.4775L65.6737 26.8343L66.2519 27.1381C66.355 27.1923 66.4697 27.2206 66.5862 27.2206C66.7027 27.2206 66.8175 27.1923 66.9206 27.1381L67.4981 26.8343L67.3881 27.4775C67.3683 27.5923 67.3768 27.7102 67.4127 27.821C67.4487 27.9319 67.511 28.0323 67.5944 28.1137L68.0619 28.5693L67.42 28.6631ZM55.745 36.6681L55.9112 35.7012C55.9338 35.569 55.9189 35.4332 55.8684 35.3089C55.8178 35.1847 55.7335 35.0771 55.625 34.9983C55.5166 34.9195 55.3882 34.8725 55.2545 34.8628C55.1207 34.853 54.9869 34.8808 54.8681 34.9431L54 35.4L53.1319 34.9431C53.0131 34.8808 52.8793 34.853 52.7455 34.8628C52.6118 34.8725 52.4834 34.9195 52.3749 34.9983C52.2665 35.0771 52.1822 35.1847 52.1316 35.3089C52.081 35.4332 52.0662 35.569 52.0887 35.7012L52.255 36.6681L51.5525 37.3525C51.4564 37.4461 51.3884 37.5647 51.3562 37.6949C51.324 37.8251 51.3289 37.9618 51.3703 38.0894C51.4117 38.217 51.488 38.3304 51.5906 38.4169C51.6931 38.5034 51.8179 38.5594 51.9506 38.5787L52.9212 38.7193L53.3556 39.5993C53.415 39.7195 53.5068 39.8207 53.6207 39.8914C53.7346 39.9622 53.8659 39.9997 54 39.9997C54.134 39.9997 54.2654 39.9622 54.3793 39.8914C54.4932 39.8207 54.585 39.7195 54.6444 39.5993L55.0787 38.7193L56.0494 38.5787C56.1821 38.5594 56.3068 38.5034 56.4094 38.4169C56.512 38.3304 56.5883 38.217 56.6297 38.0894C56.6711 37.9618 56.676 37.8251 56.6438 37.6949C56.6116 37.5647 56.5436 37.4461 56.4475 37.3525L55.745 36.6681ZM54.83 37.8087C54.7146 37.8252 54.605 37.8697 54.5106 37.9382C54.4163 38.0067 54.3402 38.0972 54.2887 38.2018L54 38.7868L53.7112 38.2018C53.6598 38.0972 53.5837 38.0067 53.4893 37.9382C53.395 37.8697 53.2854 37.8252 53.17 37.8087L52.5237 37.7143L52.9912 37.2587C53.0744 37.1777 53.1367 37.0777 53.1728 36.9673C53.2088 36.8569 53.2175 36.7395 53.1981 36.625L53.0881 35.9812L53.6656 36.285C53.7687 36.3392 53.8835 36.3675 54 36.3675C54.1165 36.3675 54.2312 36.3392 54.3344 36.285L54.9119 35.9812L54.8019 36.625C54.7821 36.7398 54.7906 36.8578 54.8267 36.9687C54.8627 37.0795 54.9252 37.1799 55.0087 37.2612L55.4762 37.7168L54.83 37.8087ZM39.6675 20.4775L39.5 21.4443C39.4776 21.5765 39.4925 21.7123 39.5432 21.8364C39.5938 21.9605 39.6781 22.068 39.7865 22.1467C39.895 22.2255 40.0233 22.2724 40.157 22.2821C40.2906 22.2918 40.4244 22.264 40.5431 22.2018L41.4112 21.745L42.28 22.2018C42.3987 22.2641 42.5324 22.292 42.6661 22.2823C42.7998 22.2726 42.9281 22.2257 43.0365 22.1469C43.1449 22.0681 43.2292 21.9605 43.2797 21.8364C43.3303 21.7123 43.3451 21.5765 43.3225 21.4443L43.1569 20.4775L43.8594 19.79C43.9555 19.6964 44.0236 19.5778 44.0558 19.4475C44.088 19.3173 44.0831 19.1806 44.0415 19.053C44 18.9254 43.9236 18.812 43.8209 18.7256C43.7183 18.6393 43.5934 18.5834 43.4606 18.5643L42.49 18.4231L42.0562 17.5431C41.9969 17.4227 41.9051 17.3214 41.7912 17.2505C41.6772 17.1797 41.5457 17.1421 41.4116 17.1421C41.2774 17.1421 41.1459 17.1797 41.0319 17.2505C40.918 17.3214 40.8262 17.4227 40.7669 17.5431L40.3325 18.4231L39.3619 18.5643C39.2292 18.5837 39.1047 18.6398 39.0022 18.7262C38.8998 18.8126 38.8235 18.926 38.7821 19.0535C38.7407 19.181 38.7358 19.3175 38.7679 19.4476C38.8 19.5778 38.8678 19.6964 38.9637 19.79L39.6675 20.4775ZM40.5825 19.3368C40.698 19.3202 40.8078 19.2758 40.9023 19.2073C40.9968 19.1388 41.0732 19.0483 41.125 18.9437L41.4137 18.3581L41.7025 18.9431C41.7541 19.0476 41.8304 19.138 41.9246 19.2066C42.0189 19.2752 42.1284 19.3199 42.2437 19.3368L42.89 19.4306L42.4225 19.8862C42.339 19.9675 42.2765 20.068 42.2405 20.1788C42.2045 20.2896 42.1959 20.4076 42.2156 20.5225L42.3262 21.1656L41.75 20.8618C41.6469 20.8076 41.5321 20.7793 41.4156 20.7793C41.2991 20.7793 41.1844 20.8076 41.0812 20.8618L40.5 21.1656L40.61 20.5225C40.6298 20.4076 40.6213 20.2897 40.5854 20.1789C40.5495 20.068 40.4871 19.9676 40.4037 19.8862L39.9375 19.4306L40.5825 19.3368ZM63.5494 27.5712C63.6608 27.571 63.7686 27.531 63.8532 27.4585C63.9379 27.386 63.994 27.2857 64.0113 27.1756C64.0287 27.0655 64.0063 26.9528 63.9481 26.8577C63.8899 26.7626 63.7997 26.6914 63.6937 26.6568L58.8875 25.0943C58.8289 25.0753 58.7672 25.068 58.7058 25.0728C58.6444 25.0776 58.5846 25.0945 58.5297 25.1224C58.4748 25.1504 58.426 25.1888 58.386 25.2357C58.346 25.2825 58.3156 25.3367 58.2966 25.3953C58.2775 25.4538 58.2702 25.5156 58.275 25.577C58.2798 25.6384 58.2967 25.6982 58.3246 25.7531C58.3526 25.8079 58.3911 25.8568 58.4379 25.8968C58.4847 25.9368 58.5389 25.9672 58.5975 25.9862L63.4044 27.5487C63.4512 27.5638 63.5001 27.5714 63.5494 27.5712ZM63.995 20.75C63.9565 20.6318 63.8727 20.5337 63.762 20.4772C63.6512 20.4207 63.5226 20.4105 63.4044 20.4487L58.5975 22.0112C58.5389 22.0303 58.4847 22.0606 58.4379 22.1006C58.3911 22.1406 58.3526 22.1895 58.3246 22.2444C58.2967 22.2992 58.2798 22.3591 58.275 22.4205C58.2702 22.4819 58.2775 22.5436 58.2966 22.6021C58.3156 22.6607 58.346 22.7149 58.386 22.7618C58.426 22.8086 58.4748 22.8471 58.5297 22.875C58.5846 22.903 58.6444 22.9198 58.7058 22.9246C58.7672 22.9295 58.8289 22.9221 58.8875 22.9031L63.6937 21.3406C63.7523 21.3216 63.8066 21.2913 63.8534 21.2513C63.9002 21.2113 63.9387 21.1625 63.9667 21.1077C63.9947 21.0528 64.0116 20.993 64.0164 20.9316C64.0213 20.8703 64.014 20.8085 63.995 20.75ZM52.255 11.3318L52.0887 12.2987C52.0662 12.4309 52.081 12.5668 52.1316 12.691C52.1822 12.8152 52.2665 12.9228 52.3749 13.0016C52.4834 13.0805 52.6118 13.1274 52.7455 13.1372C52.8793 13.1469 53.0131 13.1191 53.1319 13.0568L54 12.6L54.8681 13.0568C54.9869 13.1194 55.1209 13.1472 55.2547 13.1371C55.3886 13.1271 55.5169 13.0795 55.625 13C55.7339 12.9215 55.8185 12.8139 55.8691 12.6895C55.9198 12.5652 55.9344 12.4291 55.9112 12.2968L55.745 11.33L56.4475 10.6425C56.5436 10.5489 56.6116 10.4303 56.6438 10.3C56.676 10.1698 56.6711 10.0331 56.6297 9.90555C56.5883 9.77796 56.512 9.6645 56.4094 9.57802C56.3068 9.49154 56.1821 9.43549 56.0494 9.41621L55.0787 9.27559L54.6444 8.40059C54.585 8.2804 54.4932 8.17922 54.3793 8.10848C54.2654 8.03773 54.134 8.00024 54 8.00024C53.8659 8.00024 53.7346 8.03773 53.6207 8.10848C53.5068 8.17922 53.415 8.2804 53.3556 8.40059L52.9212 9.28059L51.9506 9.42121C51.8179 9.44049 51.6931 9.49654 51.5906 9.58302C51.488 9.6695 51.4117 9.78296 51.3703 9.91055C51.3289 10.0381 51.324 10.1748 51.3562 10.305C51.3884 10.4353 51.4564 10.5539 51.5525 10.6475L52.255 11.3318ZM53.17 10.1912C53.2854 10.1747 53.395 10.1302 53.4893 10.0617C53.5837 9.99321 53.6598 9.90272 53.7112 9.79809L54 9.21309L54.2887 9.79809C54.3402 9.90272 54.4163 9.99321 54.5106 10.0617C54.605 10.1302 54.7146 10.1747 54.83 10.1912L55.4762 10.2856L55.0087 10.7412C54.9255 10.8222 54.8633 10.9222 54.8272 11.0326C54.7912 11.143 54.7825 11.2605 54.8019 11.375L54.9119 12.0187L54.3344 11.715C54.2312 11.6608 54.1165 11.6324 54 11.6324C53.8835 11.6324 53.7687 11.6608 53.6656 11.715L53.0881 12.0187L53.1981 11.375C53.2179 11.2601 53.2093 11.1421 53.1733 11.0313C53.1373 10.9204 53.0748 10.82 52.9912 10.7387L52.5237 10.2831L53.17 10.1912ZM44.17 14.6362L45.1406 14.7775L45.5781 15.6568C45.6371 15.7774 45.7288 15.8789 45.8427 15.9498C45.9567 16.0206 46.0883 16.0579 46.2225 16.0575C46.3567 16.0579 46.4883 16.0206 46.6023 15.9498C46.7162 15.8789 46.8079 15.7774 46.8669 15.6568L47.3012 14.7775L48.2719 14.6362C48.4046 14.6169 48.5293 14.5609 48.6319 14.4744C48.7345 14.3879 48.8108 14.2745 48.8522 14.1469C48.8936 14.0193 48.8985 13.8826 48.8663 13.7524C48.8341 13.6222 48.7661 13.5036 48.67 13.41L47.9681 12.7225L48.1337 11.7556C48.1562 11.6233 48.1412 11.4873 48.0904 11.3631C48.0396 11.2388 47.9551 11.1313 47.8463 11.0527C47.7375 10.974 47.6089 10.9274 47.4751 10.9181C47.3412 10.9088 47.2073 10.9371 47.0887 11L46.2206 11.4562L45.3525 11C45.2338 10.9383 45.1002 10.9109 44.9668 10.921C44.8334 10.9311 44.7054 10.9782 44.5974 11.0571C44.4893 11.1359 44.4053 11.2434 44.355 11.3673C44.3047 11.4913 44.29 11.6268 44.3125 11.7587L44.4787 12.7256L43.7762 13.4131C43.6801 13.5067 43.6121 13.6253 43.5799 13.7555C43.5477 13.8858 43.5526 14.0224 43.594 14.15C43.6355 14.2776 43.7118 14.3911 43.8143 14.4775C43.9169 14.564 44.0416 14.6201 44.1744 14.6393L44.17 14.6362ZM45.2106 13.3162C45.2941 13.235 45.3566 13.1347 45.3926 13.024C45.4286 12.9132 45.4372 12.7954 45.4175 12.6806L45.3069 12.0368L45.885 12.3406C45.9881 12.3948 46.1029 12.4231 46.2194 12.4231C46.3359 12.4231 46.4506 12.3948 46.5537 12.3406L47.1312 12.0368L47.0212 12.6806C47.0015 12.7954 47.0101 12.9132 47.0461 13.024C47.0822 13.1347 47.1446 13.235 47.2281 13.3162L47.6956 13.7718L47.0494 13.8662C46.934 13.8828 46.8244 13.9273 46.7301 13.9958C46.6358 14.0643 46.5596 14.1548 46.5081 14.2593L46.2194 14.8443L45.9306 14.2593C45.8791 14.1548 45.8029 14.0643 45.7086 13.9958C45.6143 13.9273 45.5047 13.8828 45.3894 13.8662L44.7437 13.7718L45.2106 13.3162Z" fill="#AF8750"></path></svg>