<svg xmlns="http://www.w3.org/2000/svg" width="108" height="48" viewBox="0 0 108 48" fill="none"><path d="M42.7998 30.4512C42.3589 30.4512 42 30.0879 42 29.6411V15.7808C42 15.3398 42.3589 14.981 42.7998 14.981H47.6099C48.0513 14.981 48.4102 15.3398 48.4102 15.7808V16.6909C48.4102 17.2432 48.8579 17.6909 49.4102 17.6909H62.6299C63.0713 17.6909 63.4302 18.0498 63.4302 18.4912V20.9209C63.4302 21.1971 63.5422 21.4472 63.7234 21.6282C63.9043 21.809 64.1542 21.9209 64.4302 21.9209C64.9824 21.9209 65.4302 21.4731 65.4302 20.9209V18.4912C65.4302 16.9473 64.1738 15.6909 62.6299 15.6909H50.4087C50.3613 14.1885 49.124 12.981 47.6099 12.981H42.7998C41.2559 12.981 40 14.2368 40 15.7808V29.6411C40 31.1904 41.2559 32.4512 42.7998 32.4512H53.9102C54.4624 32.4512 54.9102 32.0034 54.9102 31.4512C54.9102 31.1748 54.7979 30.9247 54.6166 30.7437C54.4357 30.563 54.186 30.4512 53.9102 30.4512H42.7998Z" fill="#AF8750"></path><path d="M62.7864 22.5661C62.4407 22.5068 62.0875 22.4692 61.7251 22.4692C58.2651 22.4692 55.4507 25.2837 55.4507 28.7437C55.4507 29.1082 55.4885 29.4633 55.5484 29.811C56.0573 32.7637 58.6296 35.019 61.7251 35.019C65.1851 35.019 68 32.2041 68 28.7437C68 25.6461 65.7417 23.0726 62.7864 22.5661ZM57.4507 28.7437C57.4507 26.3867 59.3682 24.4692 61.7251 24.4692C64.0825 24.4692 66 26.3867 66 28.7437C66 31.1011 64.0825 33.019 61.7251 33.019C59.3682 33.019 57.4507 31.1011 57.4507 28.7437Z" fill="#AF8750"></path><path d="M64.2549 27.7437H62.7251V26.1836C62.7251 25.6313 62.2773 25.1836 61.7251 25.1836C61.1729 25.1836 60.7251 25.6313 60.7251 26.1836V27.7437C60.7251 28.8467 61.6221 29.7437 62.7251 29.7437H64.2549C64.8071 29.7437 65.2549 29.2959 65.2549 28.7437C65.2549 28.1914 64.8071 27.7437 64.2549 27.7437Z" fill="#AF8750"></path></svg>