<svg xmlns="http://www.w3.org/2000/svg" width="108" height="48" viewBox="0 0 108 48" fill="none"><path d="M58.3199 15.83C56.6049 14.08 54.2099 13 51.5649 13C46.3199 13 42.0649 17.255 42.0649 22.5C42.0649 27.745 46.3199 32 51.5649 32C53.8249 32 55.9049 31.205 57.5349 29.885C58.0549 29.465 58.5299 28.99 58.9499 28.47C60.2699 26.84 61.0649 24.76 61.0649 22.5C61.0649 20.625 60.5199 18.87 59.5799 17.4" stroke="#AF8750" stroke-linecap="round" stroke-linejoin="round"></path><path d="M56.9049 17.245C55.5499 15.86 53.6549 15 51.5649 15C47.4249 15 44.0649 18.36 44.0649 22.5C44.0649 24.23 44.6549 25.825 45.6399 27.095C45.6499 27.11 45.6649 27.125 45.6749 27.14L45.8999 27.41C46.0149 27.545 46.1349 27.675 46.2649 27.8C46.3299 27.865 46.3949 27.925 46.4599 27.985C46.6549 28.17 46.8549 28.34 47.0649 28.5C48.3149 29.44 49.8749 30 51.5649 30C55.7049 30 59.0649 26.64 59.0649 22.5C59.0649 21.18 58.7249 19.94 58.1199 18.86" stroke="#AF8750" stroke-linecap="round" stroke-linejoin="round"></path><path d="M58.9502 28.47L60.4052 29.925L58.9902 31.34L57.5352 29.885" stroke="#AF8750" stroke-linecap="round" stroke-linejoin="round"></path><path d="M58.6392 31.6951L60.7605 29.5737L66.0638 34.877C66.6507 35.4639 66.6507 36.4115 66.0638 36.9984C65.4769 37.5853 64.5294 37.5853 63.9425 36.9984L58.6392 31.6951Z" stroke="#AF8750" stroke-linecap="round" stroke-linejoin="round"></path><path d="M63.0651 13.5V16.33C63.0651 16.605 62.9551 16.855 62.7701 17.035C62.5901 17.215 62.3401 17.33 62.0651 17.33C61.5151 17.33 61.0651 16.88 61.0651 16.33V15.915L58.1201 18.86L55.9951 20.985V23.4C55.9951 23.67 55.8851 23.92 55.7001 24.105C55.6451 24.165 55.5801 24.215 55.5051 24.26C55.2051 24.44 54.8301 24.445 54.5201 24.28L51.2301 22.505L51.0401 24.215C51.0151 24.445 50.9101 24.655 50.7501 24.815L47.0651 28.5C46.5301 28.095 46.0501 27.625 45.6401 27.095L49.0901 23.645L49.4051 20.815C49.4401 20.485 49.6401 20.195 49.9351 20.04C50.2301 19.885 50.5801 19.885 50.8701 20.045L53.9951 21.725V20.57C53.9951 20.305 54.1001 20.05 54.2851 19.865L56.9051 17.245L59.6501 14.5H59.2351C58.6851 14.5 58.2351 14.05 58.2351 13.5C58.2351 12.95 58.6851 12.5 59.2351 12.5H62.0651C62.6151 12.5 63.0651 12.95 63.0651 13.5Z" stroke="#AF8750" stroke-linecap="round" stroke-linejoin="round"></path></svg>