<svg xmlns="http://www.w3.org/2000/svg" width="108" height="48" viewBox="0 0 108 48" fill="none"><path d="M62.4999 14.5C62.5465 14.5621 62.6069 14.6125 62.6763 14.6472C62.7458 14.682 62.8223 14.7 62.8999 14.7C63.0081 14.7 63.1134 14.6649 63.1999 14.6C63.306 14.5205 63.3762 14.402 63.3949 14.2707C63.4137 14.1395 63.3795 14.0061 63.2999 13.9C63.1949 13.76 63.0899 13.625 62.9799 13.49C62.8964 13.3866 62.7752 13.3206 62.643 13.3065C62.5108 13.2925 62.3784 13.3315 62.2749 13.415C62.1715 13.4986 62.1055 13.6198 62.0914 13.752C62.0774 13.8842 62.1164 14.0166 62.1999 14.12L62.4999 14.5Z" fill="black"></path><path d="M62.055 27H54.5V21.5H65C65.1326 21.5 65.2598 21.4473 65.3536 21.3536C65.4473 21.2598 65.5 21.1326 65.5 21V20.5C65.5041 18.8295 65.1243 17.1804 64.39 15.68C64.3611 15.6209 64.3209 15.5681 64.2716 15.5245C64.2222 15.481 64.1648 15.4476 64.1026 15.4262C63.977 15.3831 63.8393 15.3917 63.72 15.45C63.6007 15.5083 63.5094 15.6117 63.4662 15.7374C63.4231 15.863 63.4317 16.0007 63.49 16.12C64.1589 17.4829 64.5045 18.9818 64.5 20.5H58C57.94 16.53 57.18 12.5 55.785 10.595C57.6539 10.8362 59.4166 11.6006 60.87 12.8C60.9733 12.8684 61.0983 12.8959 61.2208 12.8774C61.3432 12.8588 61.4545 12.7955 61.5329 12.6996C61.6113 12.6038 61.6514 12.4822 61.6453 12.3585C61.6392 12.2348 61.5875 12.1177 61.5 12.03C59.5315 10.3989 57.0564 9.5043 54.5 9.5H53.5C50.5826 9.5 47.7847 10.6589 45.7218 12.7218C43.6589 14.7847 42.5 17.5826 42.5 20.5V21C42.5 21.1326 42.5527 21.2598 42.6464 21.3536C42.7402 21.4473 42.8674 21.5 43 21.5H53.5V27H45.945C45.8124 27 45.6852 27.0527 45.5914 27.1464C45.4977 27.2402 45.445 27.3674 45.445 27.5C45.445 27.6326 45.4977 27.7598 45.5914 27.8536C45.6852 27.9473 45.8124 28 45.945 28H50.54V29.5C50.54 29.8283 50.6047 30.1534 50.7303 30.4567C50.8559 30.76 51.0401 31.0356 51.2722 31.2678C51.5044 31.4999 51.78 31.6841 52.0833 31.8097C52.3866 31.9353 52.7117 32 53.04 32H53.5V35.5H52.06C51.3572 35.497 50.6737 35.7299 50.1189 36.1614C49.5641 36.5929 49.1701 37.1981 49 37.88C48.9813 37.9538 48.9796 38.0309 48.9952 38.1054C49.0108 38.1799 49.0433 38.2499 49.09 38.31C49.1386 38.3716 49.2011 38.421 49.2723 38.454C49.3435 38.487 49.4215 38.5027 49.5 38.5H58.5C58.5759 38.5004 58.651 38.4835 58.7194 38.4506C58.7879 38.4177 58.8479 38.3696 58.895 38.31C58.9417 38.2499 58.9742 38.1799 58.9898 38.1054C59.0054 38.0309 59.0037 37.9538 58.985 37.88C58.8155 37.2006 58.4238 36.5973 57.872 36.166C57.3203 35.7348 56.6403 35.5004 55.94 35.5H54.5V32H54.96C55.2883 32 55.6134 31.9353 55.9167 31.8097C56.22 31.6841 56.4956 31.4999 56.7278 31.2678C56.9599 31.0356 57.1441 30.76 57.2697 30.4567C57.3953 30.1534 57.46 29.8283 57.46 29.5V28H62.055C62.1876 28 62.3148 27.9473 62.4086 27.8536C62.5023 27.7598 62.555 27.6326 62.555 27.5C62.555 27.3674 62.5023 27.2402 62.4086 27.1464C62.3148 27.0527 62.1876 27 62.055 27ZM50 20.5H43.5C43.5031 18.0717 44.3896 15.7275 45.9942 13.9049C47.5988 12.0823 49.8117 10.9058 52.22 10.595C50.825 12.5 50.065 16.53 50 20.5ZM51 20.5C51.085 14.29 52.775 10.5 54 10.5C55.225 10.5 56.91 14.29 57 20.5H51ZM55.935 36.5C56.2966 36.5002 56.6523 36.592 56.9688 36.7669C57.2853 36.9417 57.5524 37.194 57.745 37.5H50.245C50.4376 37.194 50.7047 36.9417 51.0212 36.7669C51.3377 36.592 51.6934 36.5002 52.055 36.5H55.935ZM56.435 29.5C56.435 29.8978 56.277 30.2794 55.9957 30.5607C55.7144 30.842 55.3328 31 54.935 31H53.04C52.6422 31 52.2606 30.842 51.9793 30.5607C51.698 30.2794 51.54 29.8978 51.54 29.5V28H56.46L56.435 29.5ZM68 27C67.8674 27 67.7402 27.0527 67.6464 27.1464C67.5527 27.2402 67.5 27.3674 67.5 27.5V31H64.5C64.1022 31 63.7206 31.158 63.4393 31.4393C63.158 31.7206 63 32.1022 63 32.5V38C63 38.1326 63.0527 38.2598 63.1464 38.3536C63.2402 38.4473 63.3674 38.5 63.5 38.5C63.6326 38.5 63.7598 38.4473 63.8536 38.3536C63.9473 38.2598 64 38.1326 64 38V36.5H67.5V38C67.5 38.1326 67.5527 38.2598 67.6464 38.3536C67.7402 38.4473 67.8674 38.5 68 38.5C68.1326 38.5 68.2598 38.4473 68.3536 38.3536C68.4473 38.2598 68.5 38.1326 68.5 38V27.5C68.5 27.3674 68.4473 27.2402 68.3536 27.1464C68.2598 27.0527 68.1326 27 68 27ZM67.5 35.5H64V34H67.5V35.5ZM67.5 33H64V32.5C64 32.3674 64.0527 32.2402 64.1464 32.1464C64.2402 32.0527 64.3674 32 64.5 32H67.5V33ZM43.5 31H40.5V27.5C40.5 27.3674 40.4473 27.2402 40.3536 27.1464C40.2598 27.0527 40.1326 27 40 27C39.8674 27 39.7402 27.0527 39.6464 27.1464C39.5527 27.2402 39.5 27.3674 39.5 27.5V38C39.5 38.1326 39.5527 38.2598 39.6464 38.3536C39.7402 38.4473 39.8674 38.5 40 38.5C40.1326 38.5 40.2598 38.4473 40.3536 38.3536C40.4473 38.2598 40.5 38.1326 40.5 38V36.5H44V38C44 38.1326 44.0527 38.2598 44.1464 38.3536C44.2402 38.4473 44.3674 38.5 44.5 38.5C44.6326 38.5 44.7598 38.4473 44.8536 38.3536C44.9473 38.2598 45 38.1326 45 38V32.5C45 32.1022 44.842 31.7206 44.5607 31.4393C44.2794 31.158 43.8978 31 43.5 31ZM44 35.5H40.5V34H44V35.5ZM44 33H40.5V32H43.5C43.6326 32 43.7598 32.0527 43.8536 32.1464C43.9473 32.2402 44 32.3674 44 32.5V33Z" fill="#AF8750"></path></svg>