<svg xmlns="http://www.w3.org/2000/svg" width="108" height="48" viewBox="0 0 108 48" fill="none"><path d="M67.707 28.293C66.576 27.163 66.327 27 65 27C63.571 27 61.418 28.233 60.269 30.248L59.793 30.486C59.337 28.856 58.169 28 57 28H53.389C52.204 26.988 50.139 26 48 26C47.448 26 47 26.448 47 27C47 27.552 47.448 28 48 28C49.698 28 51.444 28.859 52.293 29.707C52.48 29.895 52.735 30 53 30H57C57.34 30 57.695 30.345 57.877 31H53C52.448 31 52 31.448 52 32C52 32.552 52.448 33 53 33H59C59.011 33 59.02 32.994 59.03 32.994C59.095 32.992 59.159 32.97 59.224 32.955C59.29 32.939 59.357 32.931 59.416 32.903C59.426 32.899 59.437 32.9 59.446 32.895L61.446 31.895C61.639 31.798 61.797 31.641 61.893 31.448C62.754 29.728 64.464 29 65 29C65.23 29 65.491 29 65.552 29.019C65.567 29.025 65.585 29.038 65.609 29.055C64.514 30.347 62.882 32.496 62.362 33.185C59.25 34.512 55.61 35.939 55.006 35.999C54.726 35.99 53.563 35.688 52.536 35.423C50.564 34.913 47.98 34.248 46.001 34.057V27C46.001 26.448 45.553 26 45.001 26H41C40.448 26 40 26.448 40 27V36C40 36.552 40.448 37 41 37H45C45.529 37 45.951 36.586 45.986 36.066C47.769 36.261 50.182 36.881 52.034 37.36C53.704 37.792 54.528 38 55 38C56.049 38 60.709 36.07 63.394 34.919C63.555 34.85 63.696 34.74 63.8 34.6C64.623 33.503 66.928 30.486 67.707 29.707C67.895 29.52 68 29.265 68 29C68 28.735 67.895 28.48 67.707 28.293ZM44 35H42V28H44V35Z" fill="#AF8750"></path><path d="M50 23H51.586L53 24.414V26C53 26.552 53.448 27 54 27C54.552 27 55 26.552 55 26V24.414L56.414 23H58C62.914 23 66.104 20.583 66.98 16.196C67.069 15.754 66.85 15.307 66.447 15.105C66.356 15.061 64.211 14 62 14C59.653 14 58.425 15.161 58.293 15.293C57.907 15.679 57.908 16.297 58.287 16.689C58.667 17.08 59.295 17.091 59.695 16.718C59.727 16.689 60.481 16 62 16C63.054 16 64.136 16.329 64.825 16.588C63.947 19.517 61.655 21 58 21H57.045C57.113 20.541 57.282 20.132 57.707 19.707C58.098 19.316 58.098 18.684 57.707 18.293C57.316 17.902 56.684 17.902 56.293 18.293C55.162 19.424 55.021 20.589 55.003 21.584L55 21.586V16.858C56.721 16.411 58 14.858 58 13C58 10.794 56.206 9 54 9C51.794 9 50 10.794 50 13C50 14.858 51.28 16.411 53 16.858V21.586L52.998 21.584C52.98 20.59 52.838 19.424 51.707 18.293C51.316 17.902 50.684 17.902 50.293 18.293C49.902 18.684 49.902 19.316 50.293 19.707C50.717 20.132 50.887 20.541 50.955 21H50C46.345 21 44.053 19.517 43.175 16.588C43.864 16.329 44.946 16 46 16C47.519 16 48.273 16.689 48.293 16.707C48.684 17.098 49.316 17.098 49.707 16.707C50.098 16.316 50.098 15.684 49.707 15.293C49.575 15.161 48.347 14 46 14C43.79 14 41.643 15.061 41.553 15.105C41.149 15.307 40.931 15.754 41.02 16.196C41.897 20.583 45.086 23 50 23ZM52 13C52 11.897 52.897 11 54 11C55.103 11 56 11.897 56 13C56 14.103 55.103 15 54 15C52.897 15 52 14.103 52 13Z" fill="#AF8750"></path></svg>